
<svg width="1145" height="991" viewBox="0 0 1145 991" fill="none" xmlns="http://www.w3.org/2000/svg">
<path d="M6.46661 506.133C9.79994 511.867 16.0666 522.667 20.3333 530C24.5999 537.333 49.7999 580.8 76.3332 626.667C102.867 672.533 127.8 715.333 131.533 722C142.733 741.2 161.533 773.6 200.333 840.667C220.333 875.2 242.2 912.933 249 924.667C280.6 979.067 285.667 988 285.667 989.333C285.667 990.267 375.667 990.533 572.467 990.4L859.4 990L873.267 966.133C880.867 953.067 895.133 928.4 904.867 911.467C914.6 894.533 932.6 863.2 944.867 842C957.267 820.667 973.267 792.8 980.733 780C988.067 767.2 1004.73 738.4 1017.67 716C1030.6 693.6 1047.4 664.533 1055 651.333C1062.6 638.133 1074.07 618.133 1080.6 606.933C1087 595.867 1097.67 577.467 1104.07 566.267C1110.6 555.2 1122.07 535.2 1129.67 522C1137.27 508.8 1144.07 497.6 1144.73 497.2C1145.4 496.667 1144.73 494.667 1143.27 492.533C1141.8 490.4 1125.53 462.267 1107 430C1088.47 397.733 1066.33 359.333 1057.93 344.667C1023.53 285.2 1018.87 277.067 1005.67 254C998.067 240.8 986.733 220.933 980.333 210C973.933 198.933 962.6 179.2 955 166C947.4 152.8 936.067 132.933 929.667 122C923.267 110.933 909.8 87.6 899.667 70C889.533 52.4 876.333 29.6 870.467 19.3334L859.533 0.666703L573 0.400036L286.333 0.133369L284.2 4.40004C283.133 6.80004 276.6 18.2667 269.667 30C262.867 41.7334 251.8 60.9334 245 72.6667C238.333 84.4 225.267 106.933 216.067 122.667C194.733 159.6 170.2 202 143.667 248C132.067 268.133 117.667 293.067 111.667 303.333C105.667 313.6 92.5999 336.133 82.7332 353.333C46.8665 415.333 5.93327 486.133 3.13327 490.8L0.333273 495.467L6.46661 506.133ZM23.2666 463.333C30.9999 450.133 45.5332 424.933 55.6665 407.333C79.6665 365.733 81.1332 363.067 90.3332 347.333C94.5999 340 109.133 314.8 122.733 291.333C136.333 267.867 155.933 234 166.333 216C176.733 198 208.2 143.467 236.333 94.8C282.733 14.6667 287.667 6.53337 289.267 8.80004C290.333 10.2667 298.467 23.8667 307.267 39.3334C316.2 54.6667 331 80.2667 340.067 96C349.267 111.733 362.2 134.267 369 146C375.8 157.733 386.733 176.667 393.267 188C399.8 199.333 412.333 220.933 421 236C429.667 251.067 447.533 281.867 460.733 304.667C473.8 327.333 492.467 359.467 501.933 376C511.533 392.533 522.733 412 527 419.333C551.933 462.267 568.067 490.4 569.533 492.933C570.867 495.6 567.8 501.467 539.533 550.267C522.2 580.267 504.867 610 501 616.667C497.133 623.2 487.4 640 479.267 654C471.267 667.867 463.4 681.467 461.933 684C460.467 686.533 439.667 722.533 415.667 764C391.667 805.467 369.8 843.2 367 848C353.533 871.067 345 885.733 318.333 932C302.467 959.467 289 982.4 288.467 982.933C287.933 983.6 264.467 944.267 236.333 895.6C208.2 847.067 180.333 798.933 174.333 788.667C168.333 778.4 146.6 740.933 126.067 705.333C105.533 669.733 69.6666 608 46.5999 568L4.46661 495.467L6.86661 491.333C8.33327 489.2 15.6666 476.533 23.2666 463.333ZM305 962C312.6 949.067 377.4 837.333 393.933 808.667C399.4 799.067 407.4 785.333 411.667 778C415.933 770.667 424.6 755.6 431 744.667C437.4 733.6 446.067 718.667 450.333 711.333C454.6 704 463.267 688.933 469.667 678C475.933 666.933 487.133 647.733 494.333 635.333C501.533 622.8 511.533 605.733 516.333 597.333C521.267 588.933 528.733 576 533 568.667C555.4 530.133 565.133 513.2 569.267 505.6L573.933 497.333H856.467C1011.8 497.333 1139 497.6 1139 498C1139 498.4 1133.67 507.867 1127.27 519.067C1120.73 530.267 1109.27 550.133 1101.67 563.333C1094.07 576.533 1080.6 599.867 1071.67 615.333C1062.73 630.667 1049.27 654.133 1041.67 667.333C1034.07 680.533 1017.27 709.6 1004.33 732C991.4 754.4 974.733 783.2 967.4 796C959.933 808.8 937.533 847.867 917.4 882.667C897.267 917.467 875.533 955.2 869.133 966.267L857.4 986.667H574.067H290.733L294.333 980.267C296.333 976.8 301.133 968.533 305 962ZM857.8 4.93337C858.333 5.60004 869.8 25.2 883.4 48.6667C896.867 72.1334 913.533 101.2 920.6 113.333C927.533 125.467 941.533 149.733 951.667 167.333C972.867 204.133 991.267 236.133 1005 260C1010.33 269.2 1020.33 286.533 1027.27 298.667C1051.13 340 1095.93 418 1103.67 431.333C1107.93 438.667 1117 454.533 1123.93 466.667C1131 478.8 1137.13 489.2 1137.8 490C1142.33 494.8 1147.93 494.667 856.733 494.4L574.6 494L567.933 482.667C564.333 476.4 558.2 465.867 554.333 459.333C550.467 452.667 536.467 428.667 523.4 406C484.6 338.933 448.733 276.8 435.933 254.667C429.4 243.333 418.467 224.4 411.667 212.667C398.333 189.733 366.867 135.333 325.667 64C311.533 39.4667 297.933 16 295.533 12L291.133 4.6667L574.067 4.2667C729.533 4.13337 857.267 4.40004 857.8 4.93337Z" fill="black"/>
<path d="M103.267 503.333C105.533 506.933 112.2 518.667 118.2 529.333C124.333 540 141.133 569.6 155.667 595.333C170.2 620.933 184.333 645.867 187 650.667C189.667 655.467 206.2 684.533 223.667 715.333C241.133 746.133 257.667 775.2 260.333 780C280.6 816.133 287.667 827.867 288.467 827.067C289.267 826.133 325 765.2 394.733 645.333C420.333 601.467 425.267 593.067 434.067 577.6C436.467 573.467 448.333 553.333 460.2 532.933C472.867 511.2 481.533 494.933 481.133 493.867C480.467 492 450.467 439.733 421.667 390C415.267 378.933 397.267 347.733 381.667 320.667C366.067 293.467 345.533 257.867 336.067 241.333C326.467 224.8 312.6 200.667 305.267 187.733C297.8 174.667 291.267 164 290.733 164C290.333 164 288.467 166.533 286.733 169.6C285 172.8 275.4 189.467 265.4 206.667C255.533 223.867 241.667 247.867 234.733 260C227.8 272.133 216.333 291.867 209.4 304C202.467 316.133 188.467 340.4 178.333 358C156.6 395.867 141.933 421.467 117.133 464.267C107.133 481.6 99 496 99.1333 496.267C99.1333 496.533 101 499.6 103.267 503.333ZM154.2 497.333H204.2L213.4 512.933C218.333 521.6 230.2 541.867 239.667 558C249 574.133 260.733 594.267 265.667 602.667C278.6 624.533 308.067 675.067 325.533 705.067L340.6 730.933L329.933 749.067C324.2 759.067 312.6 779.2 304.2 793.6C295.8 808.133 288.467 819.733 287.933 819.6C286.867 819.333 278.067 804.4 259.4 771.333C255.667 764.667 246.2 747.867 238.333 734C230.467 720 221.4 704.133 218.333 698.667C211.933 687.467 179.4 630.133 147.667 574C136.067 553.467 121.533 528 115.4 517.333C109.4 506.667 104.333 497.867 104.333 497.6C104.333 497.467 126.733 497.333 154.2 497.333ZM130.333 448.667C143.4 425.867 158.333 399.867 163.667 390.667C173.4 373.733 187.533 349.333 225 284C236.6 263.867 251.533 238 258.067 226.667C264.6 215.333 274.467 198 280.067 188.267C288.067 174.133 290.467 170.933 291.667 172.267C292.6 173.2 298.067 182.4 303.933 192.667C309.8 202.933 320.333 221.333 327.4 233.6C334.6 245.867 340.333 256.133 340.333 256.533C340.333 256.933 337 263.067 332.867 270.267C328.733 277.467 319.8 292.933 313 304.667C306.2 316.4 291.267 342.533 279.667 362.667C268.067 382.8 252.067 410.667 243.933 424.667C235.933 438.533 223.667 460 216.6 472.267L203.8 494.667H155C128.067 494.667 105.667 494.267 105.267 493.733C104.733 493.333 104.867 492.267 105.533 491.467C106.2 490.667 117.267 471.333 130.333 448.667ZM343 497.333H476.467L474.467 500.933C472.733 504.267 438.733 562.933 430.467 576.933L427 582.667H342.6H258.067L239.667 550.933C214.2 507.467 209.667 499.6 209.667 498.4C209.667 497.733 269.667 497.333 343 497.333ZM234.333 448.667L258.867 406L342.6 405.6L426.467 405.333L445.667 438.8C456.333 457.2 467.533 476.8 470.733 482.267C473.933 487.733 476.333 492.4 476.067 492.667C474.867 494 209.667 493.867 209.667 492.667C209.667 491.867 220.733 472.133 234.333 448.667ZM342.467 585.333C420.2 585.333 424.6 585.467 423.8 587.6C423.267 588.933 417.267 599.6 410.333 611.333C367 685.467 346.6 720.8 345.4 723.467C342.867 728.8 347.667 736.133 300.867 656C272.333 607.067 260.333 586.267 260.333 585.733C260.333 585.467 297.267 585.333 342.467 585.333ZM280.6 368.133C291 350.133 304.6 326.267 311 315.333C317.4 304.267 327 287.733 332.333 278.267C337.667 268.933 342.467 261.333 342.867 261.333C343.267 261.333 354.6 280.4 367.933 303.733C381.267 326.933 399.533 358.533 408.333 373.867C417.133 389.067 424.333 401.867 424.333 402.133C424.333 402.4 387.667 402.667 343 402.667C298.2 402.667 261.667 402.267 261.667 401.867C261.667 401.467 270.2 386.267 280.6 368.133Z" fill="black"/>
<path d="M617.667 905.333C757.667 905.333 809.667 904.933 809.667 903.867C809.667 903.067 813.4 896 817.8 888.133C822.333 880.4 836.6 855.733 849.4 833.333C862.2 810.933 877 785.2 882.333 776C887.667 766.8 901.267 743.067 912.6 723.333C954.733 650.133 970.333 622.8 983.133 600.667C990.333 588.133 996.6 576.933 997 575.6C997.933 573.467 988.333 573.333 807.533 573.333H617L614.867 577.067C611 583.867 581.267 635.2 571.267 652.667C565.667 662.133 556.867 677.467 551.667 686.667C546.333 695.867 534.467 716.533 525 732.667C515.667 748.8 502.067 772.533 494.6 785.333C472.067 824.533 452.467 858.4 440.333 879.333C433.933 890.267 428.067 900.667 427.133 902.267L425.533 905.333H617.667ZM441.4 884.533C446.467 875.733 457.667 856.4 466.333 841.333C475 826.267 482.733 812.933 483.533 811.6C484.867 809.467 492.867 809.333 619.133 809.333H753.267L767.667 835.6C775.533 850.133 786.733 870.533 792.467 880.8C798.333 891.2 803 900.267 803 900.8C803 901.467 720.467 902 617.667 902C515.667 902 432.333 901.6 432.333 901.2C432.333 900.667 436.467 893.2 441.4 884.533ZM530.6 730C558.867 681.067 564.6 671.333 565.667 670.267C566.2 669.6 568.733 672.933 571.267 677.6C573.8 682.133 583.667 699.467 593.133 716C634.333 787.333 642.867 802.267 643.8 804.4C644.6 806.533 639.533 806.667 566.733 806.667C523.8 806.667 488.467 806.267 488.067 805.867C487.533 805.467 493.533 794.267 501.267 780.933C509 767.6 522.2 744.667 530.6 730ZM589.4 628.133C600.333 609.333 611 590.8 613.133 587.067C615.267 583.2 617.533 580.133 618.2 580.4C619.933 580.933 616.467 575.2 701.4 720.667C728.733 767.6 732.6 774.133 742.2 790.4C747 798.667 751 805.6 751 806C751 806.4 728.2 806.667 700.333 806.667H649.667L647.8 803.6C646.867 802 634.067 780 619.667 754.667C605.133 729.333 587.667 699.067 580.733 687.333C573.933 675.6 568.6 665.2 569 664.133C569.4 663.2 578.6 646.933 589.4 628.133ZM719.933 577.067C721.933 577.733 723.667 580.4 755 633.333C769.133 657.2 786.067 685.467 792.467 696.267C799 707.067 804.333 716.4 804.333 717.2C804.333 718.267 756.2 802 754.733 803.467C754.2 803.867 749.933 796.8 733.533 768.667C730.2 762.8 715.8 738.133 701.667 714C687.533 689.733 673.267 665.467 670.2 660C667 654.533 654.867 633.733 643.267 614L622.067 578L670.2 577.333C696.733 576.933 719 576.933 719.933 577.067ZM845.667 577.6L885.667 578L847.133 644.667C825.933 681.333 807.933 711.467 807.267 711.733C806.6 711.867 792.867 690 776.867 663.067C760.867 636.133 742.867 606 736.867 596L726.2 578L765.933 577.6C787.8 577.467 823.667 577.467 845.667 577.6ZM799 734.667C815.4 706.4 832.733 676.4 837.667 668C842.6 659.6 856.333 635.733 868.333 614.933L890.2 577.333H941.4C969.533 577.333 992.2 577.733 991.933 578.267C991.533 578.933 986.733 587.467 981 597.333C975.267 607.2 967.4 620.667 963.667 627.333C948.067 654.4 845.8 832.4 815.267 885.6C811.267 892.8 807.533 898.667 807.133 898.667C806.733 898.667 804.867 896.133 803.267 892.933C791.8 872.4 773.133 838.133 765.533 824.133L756.6 807.6L763 796.8C766.467 790.8 782.733 762.933 799 734.667Z" fill="black"/>
<path d="M433.533 99.3333C437.8 106.667 459.667 144.8 482.333 184C540.467 284.933 547.533 297.2 558.733 316.667C564.333 326.133 570.6 336.933 572.6 340.667C574.733 344.267 585.533 363.2 596.733 382.667L617.133 418L807.4 418.4C913.8 418.533 997.667 418.133 997.667 417.467C997.667 415.867 992.467 406.667 948.067 329.333C911.133 264.933 877.933 206.933 830.333 124C819.267 104.533 809.8 87.8667 809.533 86.9334C809.133 85.6 771.267 85.3334 617.8 85.3334C512.6 85.3334 426.333 85.4667 426.2 85.7334C425.933 85.8667 429.267 92 433.533 99.3333ZM617.667 88C743.8 88 803 88.4 803 89.3334C803 90.5334 789.133 116.4 762.067 165.6L753.4 181.333H619.133H484.867L482.333 176.933C471 157.867 432.333 89.7334 432.333 88.9334C432.333 88.4 515.667 88 617.667 88ZM643.933 185.867C644.2 186.133 641.133 192.267 636.867 199.467C632.733 206.8 622.6 224.4 614.333 238.667C606.067 252.933 594.067 273.6 587.667 284.667C581.267 295.6 573.933 308.533 571.267 313.2C566.867 321.2 566.333 321.6 564.6 319.2C563.667 317.867 553.133 299.867 541.267 279.333C529.533 258.8 512.6 229.333 503.667 214L487.4 186L565.4 185.6C608.333 185.467 643.667 185.6 643.933 185.867ZM587.4 292.267C597.933 274.133 616.067 242.667 627.8 222.4L649 185.333H700.067H751.267L747.533 191.6C739.667 205.333 707.8 259.733 703.8 266.667C701.4 270.667 681.533 304.533 659.667 342C637.8 379.333 619.533 410.533 619 411.067C618.467 411.733 615.133 407.2 611.533 401.067C608.067 394.933 598.6 378.533 590.467 364.667C574.733 337.333 568.333 326.267 568.333 325.6C568.333 325.333 576.867 310.4 587.4 292.267ZM654.333 358C708.2 266 742.467 207.467 748.2 197.6C751.267 192.267 754.333 188.267 754.867 188.533C755.4 188.933 758.867 194.133 762.333 200.267C765.933 206.4 773.133 218.533 778.333 227.333C800.2 264.267 804.6 272.133 803.933 273.733C803.533 274.667 794.2 291.333 783 310.8C771.8 330.133 753.933 361.467 743.267 380.267L723.667 414.533L672.6 414.667H621.533L623.133 411.6C624.067 410 638.067 385.867 654.333 358ZM738.733 394.933C744.467 384.933 761.133 356 775.667 330.667C790.2 305.333 803.133 283.067 804.2 281.067C805.4 278.933 806.6 277.333 807 277.333C807.533 277.333 814.467 288.533 822.467 302.267C830.6 316.133 848.067 345.867 861.4 368.4C874.733 391.067 886.333 410.667 887 412.133C888.467 414.667 887.133 414.667 808.333 414.667C764.333 414.667 728.333 414.4 728.333 414C728.333 413.6 733 404.933 738.733 394.933ZM784.333 132.267C796.333 110.133 806.6 92 807.133 92C807.533 92 823 118.267 841.4 150.267C859.8 182.4 888.733 232.933 905.8 262.667C922.867 292.4 939.267 321.2 942.467 326.667C945.533 332.133 958.067 354 970.2 375.2C982.333 396.4 992.333 414 992.333 414.267C992.333 414.533 969.933 414.667 942.6 414.667H892.867L873.4 381.6C862.733 363.467 839.133 323.467 821 292.667C802.867 261.867 783 228.267 777 218C771 207.733 763.933 195.733 761.267 191.333L756.467 183.467L759.4 178C761.133 175.067 772.333 154.533 784.333 132.267Z" fill="black"/>
</svg>
